<svg id="Camada_1" data-name="Camada 1" xmlns="http://www.w3.org/2000/svg" viewBox="0 0 700 264.9"><defs><style>.cls-1{fill:#3d4199;fill-rule:evenodd;}</style></defs><path class="cls-1" d="M583.2,155.8c-12,0-21.2-3.2-25.8-8.9-2.9-3.7-3.9-8.4-2.7-14.1,3-14.9,17-24.1,36.6-24.1,10.2,0,17.5,2.9,22.2,8.8,3.3,4.1,4.8,12.3,3.2,18.2v.5h-46a8.6,8.6,0,0,0,2.5,7.3c2.8,3,6.1,3.5,12.1,3.5h0a20.4,20.4,0,0,0,10.5-2.5,3.9,3.9,0,0,0,1.5-2l.2-.5h16.9l-.9,1.2a33.8,33.8,0,0,1-2.6,2.7h-.1C602.4,154.5,589.9,155.8,583.2,155.8ZM604,126.2a7.5,7.5,0,0,0-2-4.8c-2.2-2.3-6.2-3.5-11.2-3.5-9.3,0-16.8,3.4-18.8,8.3Z"/><path class="cls-1" d="M488.1,154.2,497,111h17.2l-.9,4.2c3.7-3.7,8.2-7,19-7h.8c6.8.1,13,2.5,16,6.1s2.8,6.8,1.7,12.1l-5.7,27.8H528l4.2-20.5c0-.2.9-4.6.9-5,.7-3.3.4-5.8-1-7.5s-5.2-2.7-7.6-2.7c-8.5,0-12.7,3.7-14.5,12.7l-4.7,23Z"/><path class="cls-1" d="M453.6,155.8c-12.1,0-21.2-3.2-25.8-8.9-3-3.7-3.9-8.4-2.8-14.1,3.1-14.9,17.1-24.1,36.7-24.1,10.2,0,17.5,2.9,22.2,8.8,3.3,4.1,4.7,12.3,3.2,18.2v.5H441a8.9,8.9,0,0,0,2.4,7.3c2.8,3,6.2,3.5,12.2,3.5h0a19.8,19.8,0,0,0,10.4-2.5,3.4,3.4,0,0,0,1.5-2l.2-.5h17l-1,1.2-2.5,2.7h-.1C472.7,154.5,460.3,155.8,453.6,155.8Zm20.8-29.6a7.1,7.1,0,0,0-2.1-4.8c-2.1-2.3-6.1-3.5-11.2-3.5-9.2,0-16.7,3.4-18.7,8.3Z"/><path class="cls-1" d="M376.7,155.8c-8,0-14.3-2.5-18.1-7.2s-4.9-10.8-3.8-16.1c2.9-13.9,15.5-23.2,31.5-23.2,6.6,0,14.1.6,20.3,7.1l.9-4,6.4-31.2H431l-15,73H398.9l.8-4.2c-2.8,2.2-9.5,5.8-22.1,5.8Zm14-36.5c-10.1,0-17.6,5-19.1,12.7a11.9,11.9,0,0,0,2.2,9.6c1.7,2.1,5.8,4.3,12.1,4.3h.4c9.4-.1,16-4.9,17.6-12.8a10.6,10.6,0,0,0-2-9C399.1,120.7,395.8,119.3,390.7,119.3Z"/><path class="cls-1" d="M288.7,154.2l8.9-43.2h17.2l-.8,3.8c4.2-4.1,9.1-6.6,18.9-6.6h.8c6.8.1,13.1,2.5,16,6.1s2.8,6.8,1.8,12.1l-5.7,27.8H328.6l4-19c.1-.4.9-4.6,1-4.9.7-3.4.3-6.1-1.3-8s-4.2-3-7.4-3c-7.8.1-12.8,4.4-14.5,12.7l-4.5,22.2Z"/><path class="cls-1" d="M184.2,154.1,193,111h17.2l-1.4,6.7a21.5,21.5,0,0,1,16.3-7.5,25.6,25.6,0,0,1,4.7.4l.7.2-2.3,11.5h-2.6c-11.8,0-18.9,5.6-21.1,16.6l-3.2,15.2Z"/><path class="cls-1" d="M133.9,156.5c-15.1,0-26.2-4.2-33-12.5-4.7-5.9-6.3-13.4-4.6-21.9,4.5-21.9,25.1-36.1,52.5-36.1h1.5c18.3.4,29.4,6.3,33.9,18.2l.3.8-20.2,4.6-.2-.6c-1.9-5.5-6.4-12.1-17.7-12.1h-.5a30.6,30.6,0,0,0-29.6,24.4c-1.3,6.6,0,12.8,3.7,17.4s7.4,7.3,17.2,7.3c11.8,0,20.2-5.2,23.2-14.3l1.4-4H143l2.2-10h40.9l-.2.8c-2.8,10.8-7.3,18.7-14.2,24.8C161.5,152.2,149.2,156.5,133.9,156.5Z"/><path class="cls-1" d="M255.1,155.8c-12,0-21.2-3.2-25.7-8.9-3-3.7-4-8.4-2.8-14.1,3-14.9,17-24.1,36.6-24.1,10.2,0,17.5,2.9,22.3,8.8,3.2,4.1,4.7,12.3,3.1,18.2v.5h-46a8.6,8.6,0,0,0,2.5,7.3c2.8,3,6.1,3.5,12.1,3.5h0a20.2,20.2,0,0,0,10.5-2.5,3.9,3.9,0,0,0,1.5-2l.2-.5h17l-1,1.2-2.6,2.7h-.1C274.3,154.5,261.8,155.8,255.1,155.8Zm20.8-29.6a7,7,0,0,0-2-4.8c-2.2-2.3-6.2-3.5-11.2-3.5-9.3,0-16.8,3.4-18.8,8.3Z"/><path class="cls-1" d="M631.5,112.3a2.5,2.5,0,0,1-.1-.8v-.9a3.2,3.2,0,0,0-.6-1.7,2.8,2.8,0,0,0-1.9-1.1,5,5,0,0,0,1.6-.5,2.3,2.3,0,0,0,1.1-2.2,2.6,2.6,0,0,0-1.7-2.8,7.7,7.7,0,0,0-3-.4h-4V113h2v-4.4h1.6a4.3,4.3,0,0,1,2.2.4c.7.4,1,1.2,1,2.5v1.3a.1.1,0,0,1,.1.1h1.8c-.1-.1-.1-.3-.1-.6Zm-2.9-5.3h0a5.3,5.3,0,0,1-1.9.2h-1.8v-4h1.7a4.9,4.9,0,0,1,2.4.4,1.7,1.7,0,0,1,.7,1.6A1.8,1.8,0,0,1,628.6,107Z"/><path class="cls-1" d="M634.2,100.3a10,10,0,0,0-14.3,0,10.1,10.1,0,0,0,0,14.4,10,10,0,0,0,14.3,0,10.1,10.1,0,0,0,0-14.4Zm-1,13.4h0a8.6,8.6,0,0,1-12.3,0,8.5,8.5,0,0,1-2.6-6.2,8.8,8.8,0,0,1,17.5,0A8.5,8.5,0,0,1,633.2,113.7Z"/></svg>